<svg aria-hidden="true" style="position: absolute; width: 0; height: 0; overflow: hidden;" version="1.1" xmlns="http://www.w3.org/2000/svg" xmlns:xlink="http://www.w3.org/1999/xlink">
   <defs>
      <symbol id="icon-edit" viewBox="0 0 24 24">
         <path d="M11 3h-7c-0.828 0-1.58 0.337-2.121 0.879s-0.879 1.293-0.879 2.121v14c0 0.828 0.337 1.58 0.879 2.121s1.293 0.879 2.121 0.879h14c0.828 0 1.58-0.337 2.121-0.879s0.879-1.293 0.879-2.121v-7c0-0.552-0.448-1-1-1s-1 0.448-1 1v7c0 0.276-0.111 0.525-0.293 0.707s-0.431 0.293-0.707 0.293h-14c-0.276 0-0.525-0.111-0.707-0.293s-0.293-0.431-0.293-0.707v-14c0-0.276 0.111-0.525 0.293-0.707s0.431-0.293 0.707-0.293h7c0.552 0 1-0.448 1-1s-0.448-1-1-1zM17.793 1.793l-9.5 9.5c-0.122 0.121-0.217 0.28-0.263 0.465l-1 4c-0.039 0.15-0.042 0.318 0 0.485 0.134 0.536 0.677 0.862 1.213 0.728l4-1c0.167-0.041 0.33-0.129 0.465-0.263l9.5-9.5c0.609-0.609 0.914-1.41 0.914-2.207s-0.305-1.598-0.914-2.207-1.411-0.915-2.208-0.915-1.598 0.305-2.207 0.914zM19.207 3.207c0.219-0.219 0.504-0.328 0.793-0.328s0.574 0.109 0.793 0.328 0.328 0.504 0.328 0.793-0.109 0.574-0.328 0.793l-9.304 9.304-2.114 0.529 0.529-2.114z"></path>
      </symbol>
      <symbol id="icon-pencil" viewBox="0 0 32 32">
         <path d="M0 31.479c0 0.276 0.224 0.5 0.5 0.5h31.111c0.067 0 0.132-0.013 0.193-0.039s0.116-0.063 0.162-0.109c0.001-0.001 0.002-0.001 0.003-0.002 0.003-0.003 0.003-0.009 0.007-0.012 0.051-0.055 0.084-0.122 0.107-0.195 0.007-0.023 0.010-0.045 0.014-0.069 0.004-0.025 0.015-0.047 0.015-0.073 0-0.040-0.014-0.075-0.023-0.112-0.003-0.014 0.003-0.028-0.002-0.042l-3.16-9.715c-0.024-0.075-0.066-0.144-0.122-0.199l-17.117-17.118c-0.018-0.028-0.031-0.058-0.055-0.083l-3.739-3.739c-0.607-0.607-1.595-0.607-2.203 0l-5.235 5.235c-0.294 0.294-0.456 0.685-0.456 1.101s0.162 0.808 0.456 1.102l3.656 3.656c0.018 0.027 0.030 0.058 0.054 0.082l17.090 17.205c0.059 0.060 0.131 0.103 0.212 0.127l6.713 2h-27.681c-0.276-0.001-0.5 0.223-0.5 0.499zM6.362 10.161l15.687 15.486-0.577 2.002-16.245-16.353 1.135-1.135zM22.816 25l-15.748-15.545 2.437-2.437 15.607 15.648v2.334h-2.296zM25.735 21.875l-15.523-15.564 1.039-1.039 16.211 16.211-1.727 0.392zM22.988 26h2.624c0.276 0 0.5-0.224 0.5-0.5v-2.685l2.007-0.456 2.723 8.37-8.488-2.529 0.634-2.2zM1 6.808c0-0.149 0.058-0.288 0.163-0.394l5.235-5.235c0.217-0.217 0.57-0.218 0.789 0l3.372 3.372-6.023 6.023-3.372-3.372c-0.106-0.105-0.164-0.245-0.164-0.394z"></path>
      </symbol>
      <symbol id="icon-fb" viewBox="0 0 14 32">
         <path d="M3.126 6.198c0 0.806 0.027 4.75 0.027 4.75h-3.152v5.053l3.126-0.009 0.027 16.009h6.304v-16l4.038-0.009c0 0 0.305-2.219 0.494-5.043-0.542 0-4.531 0-4.531 0s-0.103-3.499-0.103-4.048c0-0.55 0.676-1.291 1.345-1.291h3.381c0-0.733 0-3.268 0-5.609-1.742 0-3.723 0-4.596 0-6.511 0-6.358 5.392-6.358 6.198z"></path>
      </symbol>
      <symbol id="icon-linked" viewBox="0 0 32 32">
         <path d="M6.972 32h-6.857v-22.857h6.857v22.857zM32.115 32h-6.857v-12.21c0-3.182-1.134-4.766-3.381-4.766-1.781 0-2.91 0.887-3.477 2.663v14.313h-6.857c0 0 0.091-20.572 0-22.857h5.413l0.418 4.572h0.142c1.406-2.286 3.653-3.835 6.734-3.835 2.343 0 4.238 0.651 5.685 2.288 1.456 1.639 2.181 3.838 2.181 6.926v12.907z"></path>
         <path d="M3.543 6.857c1.957 0 3.543-1.535 3.543-3.429s-1.586-3.429-3.543-3.429c-1.957 0-3.543 1.535-3.543 3.429s1.586 3.429 3.543 3.429z"></path>
      </symbol>
      <symbol id="icon-location" viewBox="0 0 24 32">
         <path d="M12.077 31.837c-0.138-0.002-0.271-0.048-0.381-0.131l-0.107-0.095c-2.67-2.265-11.37-10.253-11.37-18.396-0.157-1.653 0.032-3.321 0.557-4.897s1.373-3.024 2.49-4.253 2.479-2.211 3.997-2.882c1.518-0.672 3.161-1.019 4.821-1.019s3.302 0.347 4.821 1.019c1.518 0.672 2.88 1.654 3.997 2.882s1.965 2.678 2.49 4.253c0.525 1.576 0.715 3.244 0.557 4.897 0 8.131-8.701 16.13-11.37 18.384l-0.131 0.119c-0.106 0.080-0.237 0.122-0.37 0.119zM12.077 2.592c-2.815 0.003-5.515 1.123-7.506 3.115s-3.111 4.691-3.114 7.508c0 7.058 7.151 14.163 10.298 16.905l0.322 0.286 0.334-0.286c3.099-2.742 10.298-9.859 10.298-16.905-0.006-2.817-1.129-5.517-3.122-7.508s-4.693-3.111-7.51-3.114z"></path>
         <path d="M11.481 31.733l0.111 0.098 0.005 0.004c0.141 0.107 0.3 0.162 0.477 0.164 0.174 0.003 0.331-0.047 0.471-0.152l0.006-0.005 0.134-0.122c2.561-2.161 4.797-4.499 6.709-7.012 3.143-4.131 4.715-7.96 4.717-11.487 0.16-1.692-0.029-3.344-0.566-4.956-0.538-1.615-1.379-3.052-2.524-4.311-0.573-0.63-1.197-1.189-1.873-1.676s-1.401-0.902-2.179-1.246c-0.779-0.345-1.576-0.603-2.391-0.775-0.814-0.172-1.646-0.258-2.496-0.258s-1.682 0.086-2.496 0.258c-0.815 0.172-1.612 0.43-2.391 0.775s-1.504 0.76-2.179 1.246c-0.676 0.487-1.3 1.046-1.872 1.675-0.571 0.628-1.067 1.301-1.487 2.017-0.422 0.72-0.768 1.485-1.037 2.294-0.269 0.806-0.45 1.623-0.544 2.449s-0.101 1.662-0.021 2.507c0.002 3.531 1.575 7.362 4.717 11.493 1.896 2.492 4.132 4.832 6.709 7.018zM11.799 31.579l-0.105-0.093c-2.559-2.172-4.78-4.494-6.662-6.968-3.1-4.076-4.651-7.843-4.651-11.303v-0.008l-0.001-0.008c-0.079-0.825-0.072-1.641 0.020-2.447 0.092-0.804 0.268-1.598 0.529-2.383 0.262-0.788 0.599-1.532 1.009-2.232 0.409-0.697 0.891-1.352 1.446-1.963 0.557-0.613 1.165-1.156 1.822-1.63s1.364-0.878 2.12-1.213c0.758-0.335 1.533-0.587 2.327-0.754 0.792-0.167 1.601-0.251 2.428-0.251s1.636 0.084 2.428 0.251c0.793 0.167 1.569 0.419 2.327 0.754s1.464 0.739 2.121 1.213c0.657 0.474 1.265 1.017 1.822 1.63 0.556 0.611 1.038 1.265 1.446 1.963 0.411 0.701 0.747 1.445 1.009 2.232 0.523 1.572 0.706 3.182 0.55 4.83l-0.001 0.008v0.008c0 3.456-1.55 7.222-4.651 11.297-1.898 2.495-4.118 4.815-6.662 6.962l-0.002 0.002-0.127 0.116c-0.078 0.057-0.166 0.084-0.263 0.082-0.105-0.001-0.198-0.033-0.281-0.094zM6.091 4.247c-0.584 0.39-1.129 0.838-1.635 1.345-0.505 0.505-0.952 1.048-1.341 1.63-0.39 0.584-0.722 1.206-0.997 1.867s-0.479 1.334-0.617 2.021c-0.137 0.688-0.206 1.389-0.207 2.104 0 3.108 1.333 6.497 4 10.167 1.75 2.408 3.868 4.695 6.353 6.861l0.427 0.38 0.442-0.379c2.504-2.216 4.616-4.505 6.337-6.866 2.679-3.678 4.018-7.065 4.018-10.163-0.003-1.431-0.279-2.806-0.828-4.127s-1.329-2.486-2.341-3.497c-0.506-0.506-1.051-0.954-1.635-1.344-0.583-0.389-1.204-0.72-1.863-0.994-0.661-0.274-1.335-0.48-2.023-0.617s-1.388-0.206-2.103-0.207c-1.43 0.002-2.804 0.276-4.125 0.824-0.659 0.274-1.28 0.605-1.862 0.994zM3.386 7.403c0.378-0.564 0.811-1.092 1.301-1.581 0.491-0.491 1.019-0.926 1.585-1.304 0.564-0.377 1.166-0.698 1.805-0.964 0.642-0.266 1.297-0.466 1.966-0.599 0.665-0.132 1.343-0.199 2.034-0.2 1.387 0.002 2.721 0.268 4.002 0.799 0.64 0.265 1.242 0.587 1.807 0.964 0.566 0.378 1.095 0.813 1.586 1.303 0.49 0.489 0.923 1.016 1.301 1.58 0.379 0.566 0.702 1.17 0.969 1.812 0.532 1.281 0.8 2.615 0.803 4.002 0 3.026-1.318 6.35-3.956 9.971-1.706 2.343-3.801 4.613-6.285 6.811l-0.226 0.194-0.217-0.193c-2.467-2.15-4.569-4.419-6.304-6.807-2.625-3.612-3.938-6.938-3.938-9.975 0.002-1.387 0.268-2.72 0.799-4.001 0.266-0.641 0.588-1.245 0.967-1.811z"></path>
         <path d="M12.077 18.341c-1.014 0-2.004-0.301-2.847-0.864s-1.5-1.364-1.888-2.301c-0.388-0.937-0.489-1.967-0.292-2.962s0.686-1.908 1.403-2.625c0.717-0.717 1.63-1.205 2.624-1.403s2.025-0.096 2.961 0.292c0.936 0.388 1.737 1.045 2.3 1.888s0.864 1.834 0.864 2.848c0 1.36-0.54 2.663-1.501 3.625s-2.265 1.501-3.624 1.501zM12.077 9.34c-0.766 0-1.515 0.227-2.152 0.653s-1.133 1.031-1.427 1.739c-0.293 0.708-0.37 1.487-0.22 2.239s0.518 1.442 1.060 1.984c0.542 0.542 1.232 0.911 1.983 1.060s1.53 0.073 2.238-0.22c0.708-0.293 1.313-0.79 1.738-1.427s0.653-1.386 0.653-2.153c-0.003-1.027-0.412-2.010-1.138-2.736s-1.709-1.135-2.735-1.138z"></path>
         <path d="M7.986 16.574c0.324 0.395 0.709 0.741 1.153 1.038s0.912 0.52 1.402 0.669c0.489 0.148 1.001 0.223 1.535 0.223 0.701 0 1.376-0.134 2.024-0.403 0.323-0.134 0.628-0.296 0.913-0.487s0.554-0.411 0.802-0.66c0.248-0.248 0.467-0.515 0.658-0.8s0.354-0.591 0.488-0.916c0.134-0.324 0.235-0.655 0.302-0.992s0.101-0.681 0.101-1.032c0-1.070-0.297-2.049-0.891-2.939-0.297-0.445-0.644-0.83-1.040-1.155s-0.84-0.589-1.334-0.793c-0.494-0.205-0.996-0.332-1.505-0.382s-1.026-0.023-1.55 0.081c-0.524 0.104-1.011 0.277-1.462 0.518s-0.867 0.551-1.245 0.93c-0.378 0.378-0.688 0.793-0.929 1.244s-0.414 0.939-0.518 1.464c-0.104 0.524-0.131 1.041-0.081 1.55s0.178 1.012 0.382 1.506c0.205 0.495 0.47 0.94 0.795 1.335zM12.077 18.178c-1.003 0-1.922-0.279-2.757-0.837-0.417-0.279-0.777-0.603-1.082-0.974s-0.554-0.789-0.746-1.253c-0.192-0.464-0.312-0.935-0.359-1.414s-0.021-0.962 0.076-1.454c0.098-0.492 0.26-0.95 0.486-1.374s0.517-0.813 0.872-1.168c0.355-0.355 0.745-0.646 1.168-0.873s0.88-0.388 1.372-0.486c0.492-0.098 0.977-0.123 1.454-0.076s0.949 0.167 1.413 0.359c0.463 0.192 0.88 0.44 1.251 0.745s0.697 0.666 0.976 1.084c0.279 0.417 0.488 0.856 0.627 1.316s0.209 0.94 0.209 1.442c0 1.371-0.484 2.541-1.453 3.51-0.485 0.485-1.020 0.848-1.605 1.091s-1.219 0.363-1.904 0.363zM10.903 9.348c-0.373 0.113-0.729 0.283-1.068 0.51s-0.633 0.491-0.88 0.793c-0.248 0.302-0.45 0.642-0.606 1.019s-0.253 0.76-0.292 1.149c-0.038 0.389-0.018 0.784 0.062 1.184s0.212 0.774 0.396 1.119c0.184 0.344 0.42 0.66 0.708 0.948s0.606 0.526 0.95 0.71c0.344 0.184 0.716 0.316 1.116 0.395 0.801 0.159 1.578 0.083 2.332-0.23 0.376-0.156 0.715-0.358 1.017-0.605s0.567-0.542 0.794-0.882c0.227-0.339 0.397-0.696 0.51-1.070s0.17-0.765 0.17-1.174c-0.002-0.558-0.102-1.074-0.3-1.55-0.198-0.475-0.493-0.908-0.886-1.301s-0.828-0.69-1.304-0.887c-0.475-0.197-0.99-0.297-1.547-0.299-0.409 0-0.8 0.057-1.175 0.171zM9.206 10.857c0.228-0.277 0.497-0.52 0.809-0.729 0.313-0.209 0.642-0.366 0.987-0.47 0.342-0.104 0.7-0.155 1.074-0.155 1.023 0.003 1.897 0.367 2.621 1.091 0.362 0.362 0.634 0.762 0.816 1.199s0.273 0.911 0.275 1.422c0 0.751-0.208 1.438-0.625 2.062-0.209 0.313-0.452 0.583-0.73 0.811s-0.589 0.413-0.935 0.556c-0.693 0.287-1.408 0.358-2.144 0.211-0.368-0.073-0.71-0.194-1.026-0.363s-0.608-0.387-0.874-0.653c-0.265-0.265-0.482-0.555-0.651-0.871-0.17-0.317-0.291-0.66-0.365-1.029s-0.092-0.731-0.057-1.089c0.035-0.357 0.125-0.709 0.268-1.056s0.33-0.659 0.558-0.937z"></path>
      </symbol>
      <symbol id="icon-phone" viewBox="0 0 32 32">
         <path d="M10.108 0.397c-0.368-0.121-0.753-0.189-1.155-0.203h-0l-5.324-0.193c-0.016-0.001-0.033-0.001-0.049-0.001-1.471 0-2.51 0.651-3.117 1.953-0.458 0.983-0.575 2.267-0.353 3.853 0.42 2.989 1.799 6.341 4.137 10.056 2.349 3.732 5.142 6.919 8.38 9.562 0.309 0.252 0.622 0.499 0.939 0.742 3.91 2.988 8.014 4.855 12.314 5.602 0.465 0.081 0.931 0.148 1.4 0.203 1.149 0.133 2.157-0.197 3.025-0.991 0.817-0.748 1.268-1.69 1.354-2.826l0.327-4.365c0.078-1.040-0.181-1.984-0.777-2.833-0.602-0.857-1.405-1.414-2.409-1.672l-5.099-1.307c-1.143-0.293-2.218-0.129-3.226 0.491l-1.788 1.101c-1.221-0.923-2.499-2.111-3.835-3.564-0.94-1.022-1.756-1.995-2.448-2.918l1.506-2.317c0.825-1.269 0.953-2.608 0.384-4.015l-1.574-3.895c-0.166-0.412-0.384-0.782-0.652-1.111-0.239-0.293-0.518-0.553-0.837-0.78-0.354-0.252-0.727-0.442-1.121-0.572zM3.559 2.736l5.295 0.192c0.636 0.023 1.079 0.342 1.328 0.958l1.574 3.895c0.213 0.526 0.166 1.026-0.142 1.499l-2.017 3.103c-0.334 0.515-0.326 1.024 0.024 1.527 0.865 1.242 1.936 2.558 3.215 3.948 1.74 1.892 3.413 3.387 5.018 4.484 0.489 0.334 0.985 0.346 1.489 0.036l2.565-1.578c0.349-0.215 0.72-0.272 1.113-0.171l5.098 1.307c0.352 0.090 0.635 0.288 0.85 0.594 0.221 0.315 0.317 0.666 0.288 1.056l-0.327 4.365c-0.031 0.415-0.189 0.753-0.473 1.013-0.253 0.232-0.54 0.329-0.862 0.291-4.312-0.501-8.435-2.255-12.369-5.261-0.194-0.149-0.387-0.299-0.579-0.452-3.131-2.5-5.826-5.545-8.086-9.136-2.13-3.384-3.378-6.377-3.743-8.979-0.148-1.052-0.107-1.824 0.123-2.317 0.046-0.099 0.107-0.178 0.184-0.237 0.112-0.087 0.256-0.132 0.433-0.135z"></path>
      </symbol>
      <symbol id="icon-twitter" viewBox="0 0 40 32">
         <path d="M40 3.789c-1.471 0.642-3.051 1.075-4.713 1.271 1.695-0.999 2.995-2.584 3.608-4.47-1.585 0.926-3.342 1.599-5.211 1.959-1.498-1.568-3.629-2.549-5.99-2.549-4.531 0-8.206 3.617-8.206 8.081 0 0.631 0.074 1.245 0.212 1.838-6.823-0.338-12.867-3.555-16.916-8.441-0.705 1.196-1.11 2.584-1.11 4.061 0 2.802 1.45 5.277 3.65 6.725-1.346-0.043-2.611-0.406-3.717-1.011v0.104c0 3.914 2.827 7.179 6.583 7.921-0.691 0.184-1.415 0.281-2.162 0.281-0.529 0-1.045-0.049-1.545-0.142 1.045 3.208 4.075 5.545 7.667 5.608-2.81 2.168-6.349 3.459-10.193 3.459-0.662 0-1.316-0.038-1.959-0.113 3.633 2.294 7.945 3.629 12.578 3.629 15.097 0 23.351-12.308 23.351-22.983 0-0.347-0.009-0.697-0.025-1.044 1.603-1.141 2.995-2.561 4.092-4.179l0.004-0.005z"></path>
      </symbol>
      <symbol id="icon-design" viewBox="0 0 32 32">
         <path d="M11.228 7.723c-0.002-0-0.003-0-0.005-0-0.019 0.001-0.045 0.003-0.078 0.005-0.115 0.008-0.206 0.010-0.271 0.005-0.168-0.013-0.429 0.018-0.783 0.096-0.095 0.021-0.166 0.036-0.215 0.046-0.17 0.034-0.427 0.12-0.77 0.258-0.009 0.003-0.014 0.005-0.015 0.006-0.073 0.030-0.145 0.062-0.216 0.096-0.173 0.083-0.34 0.177-0.501 0.284-0.493 0.318-0.916 0.694-1.268 1.127-0.018 0.022-0.035 0.044-0.053 0.066-0.218 0.277-0.431 0.628-0.641 1.052-0.103 0.206-0.197 0.453-0.28 0.741-0.071 0.245-0.128 0.532-0.171 0.862-0.051 0.38-0.051 0.718-0.002 1.016 0.008 0.047 0.019 0.118 0.033 0.212 0.030 0.199 0.056 0.346 0.077 0.44 0.011 0.047 0.022 0.094 0.034 0.14 0.060 0.237 0.134 0.471 0.221 0.701 0.122 0.329 0.371 0.709 0.748 1.14 0.472 0.539 0.816 1.077 1.033 1.613 0.095 0.234 0.199 0.544 0.312 0.928 0.015 0.051 0.027 0.119 0.036 0.205 0.005 0.046 0.008 0.071 0.010 0.076 0.055 0.123 0.097 0.3 0.128 0.53 0.007 0.055 0.013 0.095 0.017 0.12 0.034 0.208 0.077 0.358 0.129 0.45l0.879-0.003 0.899 0.001c0.016 0 0.039 0 0.069 0.001 0.071 0.002 0.111 0 0.122-0.004 0.065-0.034 0.134-0.049 0.208-0.045 0.060 0.004 0.117 0.020 0.168 0.048l-0-0.001c0.013 0.001 0.040 0.002 0.080 0.001 0.007-0 0.012-0 0.016-0 0.033-0.001 0.084-0.002 0.152-0.003 0.2-0.005 0.351-0.006 0.455-0.003 0.242 0.007 0.608 0.009 1.097 0.008 0.314-0.001 0.55-0.001 0.708 0 0.084 0.001 0.14-0.027 0.17-0.082 0.044-0.083 0.070-0.188 0.079-0.314l0.001-0.010c0.011-0.157 0.037-0.282 0.079-0.375 0-0.001 0.001-0.002 0.001-0.003 0.002-0.145 0.037-0.331 0.106-0.559 0.025-0.084 0.042-0.145 0.051-0.183 0.043-0.181 0.131-0.438 0.266-0.772l0.005-0.013c0.173-0.425 0.399-0.818 0.68-1.18 0.075-0.098 0.189-0.24 0.343-0.426 0.146-0.177 0.254-0.31 0.323-0.4 0.137-0.175 0.253-0.36 0.349-0.555 0.093-0.189 0.168-0.387 0.223-0.595 0.010-0.039 0.026-0.096 0.046-0.172 0.046-0.17 0.079-0.298 0.099-0.383 0.048-0.202 0.078-0.406 0.092-0.612 0.026-0.462 0.013-0.857-0.041-1.183-0.004-0.026-0.011-0.051-0.021-0.076-0.030-0.079-0.059-0.19-0.085-0.335-0.013-0.071-0.024-0.122-0.032-0.154-0.061-0.232-0.138-0.458-0.232-0.679-0.087-0.202-0.213-0.438-0.377-0.709-0.251-0.412-0.62-0.83-1.107-1.255-0.394-0.344-0.87-0.623-1.429-0.836-0.11-0.042-0.28-0.099-0.512-0.171-0.078-0.024-0.136-0.043-0.175-0.055-0.034-0.011-0.099-0.021-0.194-0.031-0.16-0.016-0.292-0.044-0.395-0.083l-0.678-0.013zM11.243 7.050l0.664 0.013c0.085-0.008 0.161 0.005 0.226 0.039 0.038 0.020 0.116 0.036 0.235 0.048 0.142 0.014 0.252 0.034 0.331 0.059 0.038 0.012 0.095 0.030 0.171 0.054 0.246 0.076 0.43 0.138 0.553 0.185 0.633 0.242 1.176 0.561 1.63 0.958 0.539 0.471 0.952 0.941 1.239 1.412 0.181 0.297 0.321 0.562 0.421 0.793 0.107 0.252 0.196 0.51 0.264 0.775 0.012 0.047 0.027 0.114 0.043 0.202 0.019 0.103 0.036 0.175 0.051 0.214 0.026 0.067 0.045 0.136 0.057 0.207 0.062 0.377 0.078 0.822 0.049 1.333-0.016 0.247-0.052 0.489-0.109 0.728-0.021 0.092-0.056 0.227-0.105 0.406-0.020 0.074-0.035 0.13-0.045 0.167-0.069 0.259-0.163 0.505-0.28 0.74-0.115 0.229-0.252 0.446-0.412 0.651-0.073 0.094-0.184 0.232-0.335 0.415-0.149 0.18-0.258 0.316-0.329 0.407-0.244 0.315-0.441 0.656-0.59 1.024l-0.005 0.012c-0.122 0.302-0.201 0.527-0.235 0.674-0.012 0.052-0.033 0.126-0.062 0.223-0.054 0.178-0.079 0.306-0.077 0.383 0 0.007 0 0.013-0 0.020-0.003 0.087-0.024 0.169-0.062 0.246-0.008 0.023-0.015 0.070-0.020 0.142l-0.001 0.010c-0.015 0.221-0.067 0.415-0.156 0.582-0.072 0.134-0.164 0.237-0.275 0.31-0.136 0.089-0.301 0.132-0.496 0.13-0.155-0.001-0.388-0.002-0.699-0-0.496 0.002-0.869-0.001-1.118-0.008-0.092-0.003-0.232-0.002-0.42 0.003-0.069 0.002-0.121 0.003-0.156 0.003-0.004 0-0.008 0-0.015 0-0.11 0.002-0.206-0.008-0.287-0.030-0.090 0.023-0.196 0.034-0.318 0.031-0.025-0.001-0.043-0.001-0.054-0.001l-0.899-0.001-0.898 0.003c-0.229 0-0.405-0.093-0.529-0.279-0.112-0.17-0.195-0.416-0.247-0.737-0.005-0.032-0.012-0.078-0.020-0.139-0.022-0.166-0.047-0.281-0.076-0.346-0.031-0.069-0.052-0.161-0.064-0.277-0.005-0.045-0.009-0.073-0.013-0.085-0.107-0.364-0.204-0.652-0.29-0.866-0.189-0.466-0.494-0.94-0.915-1.422-0.431-0.493-0.722-0.943-0.873-1.349-0.022-0.059-0.044-0.118-0.065-0.178-0.086-0.245-0.157-0.494-0.215-0.748-0.024-0.111-0.053-0.274-0.086-0.487-0.014-0.091-0.025-0.159-0.032-0.203-0.061-0.364-0.061-0.77-0.002-1.216 0.048-0.363 0.112-0.683 0.192-0.96 0.095-0.327 0.203-0.613 0.325-0.856 0.229-0.463 0.467-0.851 0.713-1.165 0.040-0.052 0.082-0.102 0.124-0.153 0.384-0.456 0.838-0.853 1.361-1.191 0.083-0.055 0.168-0.107 0.254-0.157 0.184-0.105 0.374-0.199 0.571-0.28 0.006-0.003 0.013-0.005 0.021-0.009 0.381-0.153 0.677-0.251 0.888-0.293 0.045-0.009 0.113-0.023 0.204-0.043 0.419-0.092 0.746-0.128 0.981-0.109 0.032 0.003 0.088 0.001 0.169-0.005 0.048-0.003 0.085-0.006 0.111-0.007 0.012-0 0.023-0 0.035 0z"></path>
         <path d="M8.853 20.388c-0.017 0.046-0.038 0.091-0.063 0.133s-0.053 0.082-0.084 0.12c-0.020 0.024-0.029 0.064-0.027 0.12 0.002 0.054 0.016 0.093 0.044 0.118 0.023 0.021 0.056 0.031 0.097 0.031h4.83c0.159-0.003 0.307 0.041 0.443 0.131 0.068 0.045 0.127 0.099 0.176 0.159s0.089 0.129 0.118 0.206c0.063 0.151 0.080 0.306 0.053 0.465-0.028 0.162-0.099 0.303-0.214 0.421-0.075 0.077-0.158 0.136-0.249 0.177-0.103 0.046-0.216 0.069-0.34 0.069l-4.393-0.003c-0.052 0-0.093 0.014-0.121 0.043s-0.043 0.069-0.043 0.121c0 0.038 0.009 0.069 0.028 0.091 0.027 0.032 0.072 0.047 0.136 0.047h3.776c0.275 0 0.495 0.105 0.662 0.315s0.218 0.449 0.154 0.716c-0.042 0.17-0.13 0.31-0.264 0.419s-0.289 0.167-0.462 0.174c-0.4 0.013-0.997 0.017-1.791 0.012-0.38-0.002-0.664-0.003-0.853-0.002-0.116 0-0.208 0.020-0.276 0.061-0.197 0.119-0.382 0.108-0.554-0.032-0.007-0.006-0.016-0.009-0.026-0.011-0.187-0.025-0.314-0.192-0.288-0.379s0.192-0.314 0.379-0.288c0.062 0.008 0.122 0.024 0.178 0.047 0.023 0.009 0.045 0.020 0.067 0.031 0.152-0.069 0.324-0.104 0.519-0.104 0.191-0.001 0.478 0 0.859 0.002 0.786 0.004 1.373 0 1.763-0.012 0.023-0.001 0.043-0.008 0.061-0.023s0.029-0.032 0.034-0.053c0.013-0.055 0.004-0.102-0.027-0.142s-0.076-0.060-0.133-0.060h-3.776c-0.142 0-0.271-0.028-0.386-0.084-0.074-0.036-0.142-0.084-0.205-0.143-0.075-0.071-0.133-0.151-0.174-0.238-0.049-0.104-0.073-0.22-0.073-0.346 0-0.14 0.028-0.266 0.083-0.379 0.039-0.079 0.091-0.152 0.157-0.218s0.139-0.118 0.218-0.157c0.113-0.055 0.24-0.083 0.38-0.083l4.393 0.003c0.043 0 0.079-0.014 0.106-0.042 0.041-0.042 0.047-0.099 0.017-0.17-0.008-0.021-0.022-0.038-0.041-0.051s-0.042-0.019-0.069-0.018h-4.83c-0.132 0-0.251-0.026-0.358-0.077-0.080-0.038-0.153-0.091-0.219-0.157-0.151-0.152-0.23-0.341-0.237-0.568-0.005-0.17 0.028-0.32 0.098-0.448 0.024-0.044 0.053-0.086 0.086-0.125 0.007-0.008 0.013-0.017 0.018-0.026s0.010-0.019 0.014-0.029c0.066-0.177 0.256-0.264 0.433-0.198s0.264 0.256 0.198 0.433z"></path>
         <path d="M11.918 15.294c-0.003-0.189-0.154-0.334-0.343-0.331s-0.334 0.154-0.331 0.343c0.001 0.050-0.008 0.134-0.026 0.251-0.026 0.17-0.037 0.303-0.032 0.401 0 0.002-0.001 0.012-0.002 0.030-0.003 0.034-0.004 0.061-0.004 0.083v4.136c0 0.189 0.148 0.337 0.337 0.337s0.337-0.148 0.337-0.337v-4.136c0-0.004 0.001-0.014 0.002-0.030 0.004-0.046 0.005-0.083 0.003-0.113-0.002-0.053 0.006-0.142 0.025-0.267 0.024-0.155 0.035-0.277 0.033-0.365z"></path>
         <path d="M11.885 15.486c0.073 0.026 0.145 0.037 0.217 0.034 0.078-0.003 0.156-0.024 0.233-0.063 0.016-0.008 0.058-0.018 0.124-0.029 0.113-0.019 0.202-0.041 0.267-0.068 0.012-0.005 0.031-0.013 0.057-0.023 0.187-0.075 0.327-0.148 0.419-0.222l0.001-0.001c0.16-0.125 0.258-0.256 0.296-0.394 0.046-0.168 0.043-0.316-0.008-0.445-0.044-0.11-0.122-0.205-0.236-0.287-0.058-0.042-0.118-0.073-0.183-0.093-0.152-0.049-0.322-0.039-0.512 0.029-0.131 0.048-0.254 0.108-0.368 0.182-0.104 0.067-0.202 0.144-0.292 0.233-0.115 0.111-0.198 0.204-0.249 0.279-0.059 0.088-0.101 0.18-0.125 0.275-0.012 0.010-0.023 0.020-0.034 0.031-0.016-0.004-0.032-0.007-0.048-0.011-0.191-0.038-0.391-0.031-0.6 0.022-0.087 0.022-0.16 0.060-0.217 0.114-0.038 0.036-0.070 0.079-0.095 0.129-0.014 0.029-0.026 0.058-0.034 0.089-0.021 0.077-0.021 0.16-0.002 0.249 0.037 0.165 0.056 0.376 0.056 0.633v4.059c0 0.189 0.148 0.337 0.337 0.337s0.337-0.148 0.337-0.337v-4.059c0-0.219-0.012-0.414-0.037-0.585 0.054-0.001 0.104 0.005 0.153 0.017 0.159 0.041 0.298 0.036 0.417-0.016 0.045-0.020 0.087-0.046 0.126-0.079zM12.463 14.739c0.038-0.030 0.077-0.057 0.118-0.082 0.066-0.040 0.136-0.074 0.21-0.101 0.018-0.006 0.034-0.011 0.048-0.014-0.012 0.010-0.029 0.024-0.051 0.041l-0.001 0.001c-0.043 0.034-0.128 0.076-0.254 0.127-0.027 0.011-0.048 0.019-0.062 0.025-0.002 0.001-0.005 0.002-0.008 0.003z"></path>
         <path d="M10.519 15.48c-0.094 0.030-0.186 0.040-0.276 0.029-0.075-0.009-0.147-0.031-0.219-0.068-0.004-0.001-0.008-0.001-0.011-0.002-0.304-0.048-0.555-0.14-0.753-0.275-0.197-0.135-0.32-0.29-0.369-0.466-0.008-0.027-0.013-0.054-0.017-0.082-0.019-0.132-0.007-0.25 0.038-0.355 0.047-0.11 0.13-0.204 0.249-0.282 0.043-0.029 0.088-0.052 0.136-0.069 0.152-0.056 0.326-0.054 0.52 0.006 0.201 0.062 0.407 0.18 0.617 0.353 0.237 0.196 0.385 0.407 0.444 0.635l0.166 0.129c0.149 0.116 0.175 0.324 0.059 0.473s-0.324 0.175-0.473 0.059l-0.11-0.086zM9.939 14.737c-0.116-0.088-0.223-0.147-0.321-0.177-0.023-0.007-0.042-0.012-0.059-0.014 0.017 0.016 0.044 0.038 0.082 0.064 0.078 0.053 0.178 0.096 0.298 0.128z"></path>
         <path d="M9.786 3.116c-0.004-0.189-0.155-0.334-0.343-0.33s-0.334 0.155-0.33 0.343c0.002 0.128 0.022 0.253 0.059 0.375 0.017 0.060 0.034 0.165 0.052 0.315 0.009 0.077 0.016 0.135 0.022 0.175-0.001-0.006-0.001-0.010-0.001-0.010 0.001 0.064 0.011 0.12 0.030 0.17 0.023 0.062 0.047 0.168 0.070 0.318 0.018 0.118 0.035 0.208 0.050 0.27 0.022 0.092 0.050 0.235 0.084 0.429 0.016 0.094 0.029 0.165 0.038 0.213 0.006 0.031 0.015 0.077 0.027 0.139 0.034 0.171 0.055 0.297 0.062 0.378 0.005 0.051 0.017 0.119 0.038 0.204 0.016 0.063 0.023 0.102 0.022 0.118-0.012 0.188 0.127 0.346 0.315 0.357s0.345-0.127 0.357-0.315c0.005-0.085-0.008-0.193-0.041-0.323-0.013-0.050-0.020-0.084-0.021-0.101-0.009-0.105-0.034-0.255-0.073-0.45-0.012-0.059-0.020-0.103-0.026-0.132-0.008-0.045-0.021-0.112-0.036-0.204-0.036-0.208-0.067-0.365-0.093-0.471-0.011-0.045-0.024-0.117-0.039-0.217-0.027-0.176-0.058-0.314-0.092-0.416-0.001-0.021-0.003-0.040-0.005-0.056-0.005-0.033-0.011-0.084-0.019-0.154-0.021-0.187-0.047-0.331-0.076-0.432-0.009-0.032-0.017-0.064-0.022-0.096s-0.008-0.065-0.009-0.098z"></path>
         <path d="M14.044 2.919c-0.063-0.178-0.253-0.267-0.431-0.204s-0.267 0.253-0.204 0.43c0.016 0.044 0.012 0.11-0.012 0.198-0.012 0.043-0.027 0.107-0.046 0.192-0.020 0.090-0.035 0.154-0.047 0.191-0.029 0.096-0.068 0.238-0.115 0.427-0.019 0.075-0.033 0.131-0.043 0.168-0.022 0.085-0.056 0.213-0.103 0.383-0.072 0.263-0.124 0.461-0.156 0.595-0.007 0.029-0.017 0.071-0.029 0.127-0.028 0.129-0.054 0.219-0.076 0.271-0.026 0.059-0.050 0.135-0.073 0.229-0.037 0.005-0.070 0.012-0.101 0.022-0.18 0.058-0.275 0.244-0.218 0.424s0.244 0.275 0.424 0.218l-0.006 0.002c0.008-0 0.025-0 0.052 0.001 0.068 0.002 0.123 0.001 0.166-0.004 0.078-0.010 0.141-0.036 0.188-0.079s0.081-0.103 0.099-0.179c0.008-0.033 0.017-0.081 0.029-0.144 0.020-0.107 0.038-0.179 0.054-0.215 0.042-0.094 0.082-0.228 0.12-0.403 0.011-0.050 0.019-0.086 0.025-0.109 0.031-0.128 0.082-0.321 0.152-0.578 0.047-0.173 0.082-0.303 0.105-0.39 0.010-0.039 0.025-0.097 0.044-0.174 0.045-0.178 0.080-0.309 0.106-0.395 0.017-0.055 0.037-0.136 0.061-0.244 0.016-0.073 0.028-0.126 0.037-0.158 0.061-0.224 0.060-0.425-0.003-0.602z"></path>
         <path d="M21.009 13.252c0.172-0.005 0.297-0.003 0.376 0.005 0.188 0.020 0.351-0.112 0.371-0.299s-0.112-0.351-0.299-0.371c-0.109-0.012-0.264-0.015-0.466-0.009-0.105 0.003-0.181 0.004-0.231 0.003-0.13-0.003-0.323-0.003-0.581-0.002-0.251 0.002-0.438 0.001-0.562-0.002-0.342-0.007-0.696-0.005-1.059 0.008-0.010 0-0.034-0.002-0.071-0.006-0.123-0.014-0.224-0.011-0.305 0.008-0.183 0.044-0.293 0.223-0.248 0.406s0.223 0.293 0.406 0.248c0.003-0.001 0.026 0.001 0.070 0.006 0.070 0.008 0.127 0.011 0.171 0.010 0.351-0.012 0.691-0.015 1.021-0.008 0.13 0.003 0.323 0.003 0.581 0.002 0.251-0.002 0.439-0.001 0.564 0.002 0.060 0.001 0.147 0 0.262-0.003z"></path>
         <path d="M3.413 13.254c0.166-0.020 0.398-0.020 0.697-0.002 0.188 0.012 0.346-0.127 0.357-0.315s-0.127-0.346-0.315-0.357c-0.34-0.021-0.613-0.020-0.82 0.005-0.054 0.006-0.146 0.004-0.277-0.008-0.134-0.012-0.238-0.016-0.312-0.013-0.384 0.015-0.751 0.015-1.103 0-0.108-0.005-0.264-0.001-0.468 0.012-0.085 0.005-0.148 0.009-0.189 0.010-0.188 0.008-0.331 0.162-0.323 0.35s0.162 0.331 0.35 0.323c0.046-0.002 0.114-0.006 0.203-0.011 0.181-0.011 0.314-0.015 0.398-0.011 0.37 0.016 0.756 0.016 1.158 0 0.046-0.002 0.121 0.002 0.227 0.011 0.178 0.016 0.316 0.017 0.416 0.005z"></path>
         <path d="M20.355 9.015l0 0-0.903 0.419-0.561 0.262-1.154 0.551c-0.17 0.081-0.368 0.011-0.449-0.159s-0.012-0.368 0.158-0.449l0-0 0.386-0.185 0.773-0.368 0.562-0.263 0.903-0.419c0.171-0.079 0.368-0.007 0.447 0.164s0.008 0.368-0.163 0.447l-0-0z"></path>
         <path d="M2.615 7.707c-0.053-0.004-0.106 0.002-0.16 0.018-0.181 0.054-0.28 0.239-0.226 0.419 0.040 0.134 0.152 0.223 0.28 0.238 0.027 0.021 0.052 0.037 0.075 0.050 0.17 0.090 0.423 0.231 0.759 0.424 0.192 0.11 0.336 0.192 0.433 0.246l0.351 0.198 0.751 0.421c0.040 0.022 0.093 0.044 0.158 0.065 0.016 0.005 0.027 0.009 0.032 0.011 0.177 0.065 0.367-0.024 0.432-0.201s-0.024-0.367-0.201-0.432c-0.014-0.005-0.034-0.012-0.059-0.020-0.022-0.007-0.033-0.010-0.032-0.010l-1.103-0.62c-0.095-0.053-0.237-0.134-0.427-0.242-0.333-0.191-0.588-0.333-0.764-0.427-0.002-0.001-0.003-0.003-0.005-0.005-0.095-0.082-0.193-0.126-0.294-0.134z"></path>
         <path d="M17.471 16.050c-0.166-0.090-0.367-0.030-0.457 0.136s-0.030 0.367 0.136 0.457c0.054 0.029 0.134 0.072 0.242 0.13 0.234 0.125 0.409 0.221 0.523 0.285 0.121 0.069 0.303 0.174 0.546 0.314 0.433 0.251 0.759 0.436 0.98 0.556 0.009 0.005 0.027 0.017 0.054 0.035 0.163 0.11 0.316 0.161 0.458 0.152 0.188-0.012 0.327-0.169 0.315-0.357-0.011-0.182-0.158-0.317-0.337-0.316-0.012-0.006-0.031-0.019-0.059-0.038-0.045-0.031-0.082-0.053-0.11-0.069-0.215-0.117-0.537-0.299-0.964-0.547-0.244-0.141-0.428-0.247-0.551-0.317-0.119-0.068-0.298-0.165-0.537-0.293-0.106-0.057-0.186-0.1-0.239-0.128z"></path>
         <path d="M5.234 16.652l0 0-1.901 1.072c-0.061 0.034-0.152 0.084-0.274 0.15-0.141 0.076-0.246 0.134-0.314 0.173-0.079 0.045-0.174 0.067-0.285 0.067-0.008 0-0.014 0-0.016 0l0.002-0c-0.188 0.020-0.351-0.111-0.371-0.299s0.111-0.351 0.299-0.371c0.021-0.002 0.046-0.004 0.076-0.004 0.071-0.040 0.168-0.093 0.29-0.159 0.118-0.063 0.205-0.111 0.262-0.143l1.901-1.072c0.164-0.093 0.366-0.036 0.459 0.128s0.037 0.366-0.128 0.459l-0-0z"></path>
         <path d="M5.398 4.507c-0.189-0.005-0.34 0.14-0.345 0.329-0.004 0.158 0.097 0.29 0.24 0.331 0.101 0.147 0.242 0.345 0.422 0.594 0.082 0.114 0.144 0.199 0.184 0.256 0.045 0.063 0.112 0.156 0.202 0.281 0.282 0.391 0.49 0.685 0.624 0.882 0.022 0.032 0.054 0.073 0.096 0.123 0.039 0.046 0.059 0.071 0.060 0.075 0.031 0.186 0.201 0.308 0.387 0.277s0.308-0.201 0.277-0.387c-0.021-0.126-0.091-0.259-0.21-0.4-0.027-0.032-0.044-0.054-0.052-0.065-0.139-0.204-0.351-0.503-0.636-0.899-0.090-0.124-0.157-0.218-0.201-0.28-0.041-0.058-0.103-0.144-0.186-0.258-0.208-0.287-0.361-0.504-0.46-0.649-0.039-0.057-0.085-0.103-0.139-0.137-0.073-0.046-0.16-0.070-0.26-0.072-0.002-0-0.003-0-0.004-0z"></path>
         <path d="M17.908 5c-0.056-0.18-0.242-0.278-0.422-0.222-0.171 0.053-0.268 0.224-0.229 0.395-0.011 0.015-0.029 0.037-0.055 0.067-0.009 0.011-0.016 0.019-0.021 0.025-0.090 0.106-0.224 0.264-0.404 0.475-0.221 0.257-0.385 0.451-0.495 0.582-0.102 0.122-0.253 0.306-0.454 0.551-0.164 0.201-0.288 0.351-0.371 0.451-0.049 0.057-0.084 0.123-0.106 0.197s-0.029 0.15-0.019 0.227c0.023 0.187 0.188 0.316 0.375 0.294 0.169-0.021 0.29-0.156 0.296-0.32 0.083-0.1 0.198-0.24 0.347-0.422 0.199-0.243 0.349-0.425 0.449-0.545 0.108-0.129 0.271-0.321 0.49-0.576 0.181-0.212 0.317-0.37 0.406-0.476 0.004-0.005 0.010-0.012 0.019-0.022 0.079-0.091 0.134-0.17 0.165-0.237 0.033-0.071 0.052-0.143 0.058-0.215 0.006-0.075-0.004-0.151-0.028-0.228zM15.977 7.753c-0 0-0.001 0.001-0.001 0.001s0.001-0.001 0.001-0.001z"></path>
         <path d="M10.286 24.263c-0.016-0.188-0.176-0.323-0.364-0.307s-0.323 0.176-0.307 0.364c0.009 0.112 0.035 0.217 0.078 0.314s0.102 0.187 0.178 0.27c0.115 0.125 0.197 0.244 0.247 0.358 0.098 0.224 0.232 0.396 0.403 0.516 0.086 0.061 0.182 0.109 0.286 0.144 0.224 0.074 0.437 0.093 0.641 0.056 0.159-0.029 0.311-0.091 0.457-0.188 0.126-0.083 0.241-0.204 0.344-0.363 0.074-0.113 0.117-0.23 0.13-0.35 0.005-0.051 0.005-0.102-0.001-0.154-0.021-0.188-0.184-0.319-0.372-0.298s-0.319 0.184-0.298 0.372c0.002 0.015-0.006 0.036-0.024 0.062-0.053 0.081-0.103 0.137-0.15 0.168-0.056 0.037-0.115 0.063-0.177 0.078-0.105 0.025-0.218 0.018-0.339-0.022-0.017-0.006-0.034-0.013-0.051-0.021-0.099-0.049-0.177-0.139-0.234-0.27-0.080-0.182-0.202-0.363-0.368-0.544-0.024-0.026-0.043-0.054-0.056-0.085s-0.022-0.064-0.025-0.099z"></path>
         <path d="M13.217 5.625c-0.181-0.053-0.365 0.048-0.417 0.229s0.048 0.365 0.229 0.417c0.068 0.020 0.155 0.029 0.261 0.026 0.025-0 0.042-0.001 0.051-0 0.188 0.007 0.342-0.135 0.35-0.323s-0.135-0.342-0.323-0.35c-0.023-0.001-0.053-0.001-0.092-0-0.037 0.001-0.057 0.001-0.059 0z"></path>
         <path d="M11.331 27.843c0 0.204 0.039 0.399 0.117 0.587s0.189 0.354 0.333 0.498c0.144 0.144 0.31 0.255 0.498 0.332 0.094 0.039 0.19 0.068 0.288 0.087s0.198 0.029 0.3 0.029l14.783-0.026c0.144-0 0.283-0.028 0.416-0.083s0.25-0.134 0.352-0.236c0.051-0.051 0.096-0.106 0.135-0.164s0.073-0.122 0.1-0.188c0.055-0.133 0.082-0.272 0.082-0.416l-0.003-2.001c-0.007-0.007-0.013-0.012-0.018-0.017-0.097-0.086-0.172-0.188-0.227-0.306-0.002-0.003-0.003-0.007-0.005-0.011-0.035-0.083-0.099-0.209-0.19-0.377-0.1-0.184-0.172-0.327-0.215-0.428l-0.013-0.030c-0.12-0.28-0.216-0.486-0.291-0.617-0.21-0.371-0.504-0.936-0.882-1.695-0.071-0.142-0.124-0.249-0.16-0.32-0.006-0.011-0.015-0.029-0.027-0.053-0.066-0.126-0.109-0.229-0.129-0.309-0.029-0.112-0.034-0.221-0.014-0.327-0.038-0.116-0.056-0.261-0.055-0.434 0-0.024 0-0.042 0-0.053l0.001-11.986c0-0.017-0.001-0.044-0.002-0.082-0.006-0.158 0.008-0.293 0.044-0.406-0.029-0.095-0.043-0.21-0.043-0.345 0-0.013 0-0.024 0-0.031 0-0.062-0-0.155-0.002-0.28-0.002-0.252-0.001-0.443 0.004-0.572 0.021-0.499 0.188-0.943 0.501-1.332 0.156-0.194 0.333-0.355 0.531-0.483 0.2-0.13 0.421-0.226 0.664-0.29 0.433-0.112 0.94-0.126 1.52-0.042 0.448 0.066 0.845 0.264 1.193 0.595 0.35 0.334 0.566 0.723 0.648 1.167 0.106 0.571 0.11 1.094 0.014 1.568 0.036 0.124 0.055 0.271 0.055 0.44v12.125c0 0.085-0.015 0.199-0.044 0.343-0.026 0.127-0.035 0.214-0.026 0.26 0.019 0.101-0.004 0.215-0.069 0.342-0.003 0.005-0.004 0.009-0.005 0.011-0.049 0.098-0.123 0.244-0.221 0.44-0.304 0.607-0.536 1.060-0.696 1.361-0.016 0.030-0.039 0.080-0.071 0.15-0.095 0.212-0.201 0.376-0.319 0.492-0.022 0.134-0.066 0.261-0.131 0.38-0.149 0.279-0.266 0.515-0.351 0.706-0.079 0.178-0.175 0.323-0.287 0.435-0.002 0.022-0.005 0.044-0.010 0.066l0.003 1.945c0 0.233-0.044 0.458-0.133 0.674s-0.216 0.406-0.381 0.571c-0.165 0.165-0.355 0.293-0.571 0.382s-0.44 0.134-0.673 0.134l-14.783 0.026c-0.293 0-0.575-0.055-0.846-0.167-0.135-0.056-0.263-0.124-0.383-0.203s-0.231-0.171-0.335-0.275c-0.207-0.207-0.367-0.446-0.479-0.716-0.056-0.135-0.098-0.274-0.126-0.414s-0.042-0.285-0.042-0.431v-2.212c0-0.189 0.148-0.337 0.337-0.337s0.337 0.148 0.337 0.337v2.212zM29.067 25.587c0.007-0.014 0.014-0.029 0.020-0.044 0.092-0.206 0.216-0.456 0.372-0.749 0.032-0.059 0.053-0.122 0.063-0.186-0.002-0.153 0.055-0.266 0.172-0.34 0.055-0.036 0.119-0.137 0.194-0.304 0.038-0.084 0.068-0.148 0.092-0.192 0.158-0.295 0.387-0.744 0.688-1.345 0.098-0.196 0.172-0.343 0.221-0.441 0.001-0.002 0.002-0.004 0.003-0.006-0.010-0.119 0.003-0.265 0.039-0.438 0.020-0.099 0.030-0.169 0.030-0.208v-12.125c0-0.11-0.010-0.196-0.030-0.257-0.031-0.082-0.040-0.167-0.024-0.255 0.001-0.005 0.002-0.011 0.003-0.016 0.089-0.4 0.087-0.852-0.006-1.357-0.056-0.301-0.206-0.569-0.45-0.802s-0.52-0.372-0.826-0.417c-0.49-0.072-0.908-0.063-1.253 0.027-0.34 0.089-0.62 0.27-0.84 0.544-0.11 0.137-0.195 0.283-0.253 0.44s-0.092 0.322-0.099 0.498c-0.004 0.117-0.006 0.297-0.003 0.538 0.001 0.128 0.002 0.224 0.002 0.288 0 0.007-0 0.018-0 0.032-0 0.078 0.002 0.123 0.009 0.134 0.080 0.143 0.080 0.281 0 0.413-0.011 0.018-0.014 0.076-0.011 0.172 0.002 0.048 0.003 0.084 0.003 0.11l-0.001 11.985c0 0.014-0 0.034-0 0.060-0.001 0.089 0.003 0.153 0.012 0.192 0.015 0.021 0.028 0.045 0.038 0.069 0.036 0.089 0.035 0.18-0.002 0.273-0.011 0.028 0.013 0.101 0.074 0.219 0.014 0.027 0.024 0.047 0.032 0.061 0.036 0.072 0.089 0.179 0.161 0.322 0.372 0.748 0.661 1.303 0.865 1.663 0.087 0.153 0.195 0.381 0.324 0.685l0.013 0.030c0.035 0.081 0.097 0.205 0.187 0.37 0.078 0.144 0.139 0.263 0.183 0.357zM26.587 8.908c0.002 0.005 0.005 0.010 0.007 0.014-0.003-0.005-0.005-0.010-0.007-0.014zM30.070 24.827c-0.005 0.003-0.010 0.007-0.015 0.010 0.005-0.003 0.010-0.007 0.015-0.010z"></path>
         <path d="M28.415 10.384c-0.157-0.104-0.363-0.062-0.467 0.096-0.075 0.113-0.074 0.251-0.009 0.358v8.758c0 0.006-0 0.016-0 0.030-0.004 0.252 0.081 0.431 0.256 0.538 0.161 0.098 0.365 0.048 0.463-0.113 0.083-0.136 0.060-0.302-0.045-0.41l0-0.004c0-0.018 0-0.032 0-0.042v-8.791c0-0.002 0-0.005 0-0.010 0.002-0.186-0.064-0.322-0.198-0.411z"></path>
         <path d="M30.187 19.794v-9.047c0-0.189-0.148-0.337-0.337-0.337s-0.337 0.148-0.337 0.337v9.047c0 0.189 0.148 0.337 0.337 0.337s0.337-0.148 0.337-0.337z"></path>
         <path d="M27.689 8.457c-0.346-0.006-0.607-0.004-0.784 0.006-0.188 0.011-0.328 0.167-0.317 0.356s0.167 0.328 0.356 0.317c0.16-0.009 0.405-0.011 0.734-0.005 0.151 0.003 0.265 0.004 0.342 0.004 0.176 0 0.439-0.001 0.788-0.005 0.503-0.005 0.88-0.006 1.13-0.001 0.159 0.003 0.396 0.002 0.711-0.001 0.246-0.003 0.43-0.004 0.552-0.003 0.189 0.001 0.338-0.146 0.339-0.335s-0.146-0.338-0.335-0.339c-0.126-0.001-0.314 0-0.564 0.003-0.308 0.003-0.539 0.004-0.691 0.001-0.256-0.004-0.639-0.004-1.149 0.001-0.347 0.004-0.607 0.005-0.78 0.005-0.073-0-0.184-0.002-0.332-0.004z"></path>
         <path d="M27.019 21.397c-0.044 0.004-0.076 0.007-0.097 0.008-0.188 0.014-0.325 0.172-0.312 0.36s0.172 0.325 0.36 0.312c0.025-0.002 0.062-0.005 0.11-0.009 0.089-0.008 0.154-0.012 0.193-0.012l3.568-0.001c0.128 0 0.217 0.007 0.268 0.022 0.181 0.052 0.365-0.049 0.417-0.23s-0.049-0.365-0.23-0.417c-0.112-0.032-0.263-0.048-0.455-0.048l-3.568 0.001c-0.060 0-0.144 0.005-0.253 0.015z"></path>
         <path d="M29.548 24.818c0.044-0 0.075 0.007 0.092 0.021 0.148 0.117 0.356 0.093 0.473-0.055s0.093-0.356-0.055-0.473c-0.036-0.028-0.073-0.053-0.113-0.074-0.117-0.062-0.251-0.093-0.401-0.093l-0.485 0.001-0.492-0.001c-0.17-0.002-0.327 0.043-0.472 0.135-0.159 0.101-0.205 0.305-0.105 0.465s0.305 0.205 0.465 0.105c0.010-0.007 0.021-0.012 0.032-0.016 0.024-0.010 0.050-0.014 0.078-0.014l0.495 0.001 0.486-0.001z"></path>
      </symbol>
      <symbol id="icon-edit2" viewBox="0 0 32 32">
         <path d="M26.667 1.172c-1.104 0-2.162 0.438-2.943 1.219l-12.667 12.667c-0.171 0.171-0.292 0.385-0.351 0.619l-1.333 5.333c-0.114 0.454 0.020 0.935 0.351 1.266s0.812 0.464 1.266 0.351l5.333-1.333c0.235-0.059 0.449-0.18 0.619-0.351l12.667-12.667c0.781-0.78 1.219-1.839 1.219-2.943s-0.438-2.162-1.219-2.943c-0.781-0.78-1.839-1.219-2.943-1.219zM25.609 4.276c0.28-0.28 0.661-0.438 1.057-0.438s0.777 0.158 1.057 0.438c0.28 0.28 0.438 0.661 0.438 1.057s-0.157 0.777-0.438 1.057l-12.405 12.406-2.819 0.705 0.705-2.819 12.406-12.406zM2.505 5.172c0.75-0.75 1.768-1.172 2.828-1.172h9.333c0.736 0 1.333 0.597 1.333 1.333s-0.597 1.333-1.333 1.333h-9.333c-0.354 0-0.693 0.14-0.943 0.391s-0.391 0.589-0.391 0.943v18.667c0 0.354 0.14 0.693 0.391 0.943s0.589 0.391 0.943 0.391h18.667c0.354 0 0.693-0.14 0.943-0.391s0.391-0.589 0.391-0.943v-9.333c0-0.736 0.597-1.333 1.333-1.333s1.333 0.597 1.333 1.333v9.333c0 1.061-0.421 2.078-1.172 2.829s-1.767 1.171-2.828 1.171h-18.667c-1.061 0-2.078-0.421-2.828-1.171s-1.172-1.768-1.172-2.829v-18.667c0-1.061 0.421-2.078 1.172-2.828z"></path>
      </symbol>
      <symbol id="icon-monitor" viewBox="0 0 32 32">
         <path d="M17.333 24v2.667h4c0.736 0 1.333 0.597 1.333 1.333s-0.597 1.333-1.333 1.333h-10.667c-0.736 0-1.333-0.597-1.333-1.333s0.597-1.333 1.333-1.333h4v-2.667h-9.333c-2.209 0-4-1.791-4-4v-13.333c0-2.209 1.791-4 4-4h21.333c2.209 0 4 1.791 4 4v13.333c0 2.209-1.791 4-4 4h-9.333zM5.333 5.333c-0.736 0-1.333 0.597-1.333 1.333v13.333c0 0.736 0.597 1.333 1.333 1.333h21.333c0.736 0 1.333-0.597 1.333-1.333v-13.333c0-0.736-0.597-1.333-1.333-1.333h-21.333z"></path>
      </symbol>
      <symbol id="icon-minus" viewBox="0 0 32 32">
         <path d="M30.667 17h-29.333c-0.265 0-0.52-0.105-0.707-0.293s-0.293-0.442-0.293-0.707c0-0.265 0.105-0.52 0.293-0.707s0.442-0.293 0.707-0.293h29.333c0.265 0 0.52 0.105 0.707 0.293s0.293 0.442 0.293 0.707-0.105 0.52-0.293 0.707c-0.187 0.188-0.442 0.293-0.707 0.293z"></path>
      </symbol>
      <symbol id="icon-plus" viewBox="0 0 32 32">
         <path d="M31.667 16c0 0.265-0.105 0.52-0.293 0.707s-0.442 0.293-0.707 0.293h-13.667v13.667c0 0.265-0.105 0.52-0.293 0.707s-0.442 0.293-0.707 0.293-0.52-0.105-0.707-0.293c-0.188-0.187-0.293-0.442-0.293-0.707v-13.667h-13.667c-0.265 0-0.52-0.105-0.707-0.293s-0.293-0.442-0.293-0.707c0-0.265 0.105-0.52 0.293-0.707s0.442-0.293 0.707-0.293h13.667v-13.667c0-0.265 0.105-0.52 0.293-0.707s0.442-0.293 0.707-0.293c0.265 0 0.52 0.105 0.707 0.293s0.293 0.442 0.293 0.707v13.667h13.667c0.265 0 0.52 0.105 0.707 0.293s0.293 0.442 0.293 0.707z"></path>
      </symbol>
      <symbol id="icon-telegram" viewBox="0 0 32 32">
         <path d="M31.751 0.134c-0.198-0.155-0.468-0.178-0.69-0.058l-30.731 16.646c-0.223 0.12-0.353 0.363-0.328 0.615 0.022 0.253 0.193 0.468 0.433 0.545l8.736 2.851-0.845 8.648c-0.027 0.275 0.125 0.535 0.378 0.643 0.080 0.038 0.168 0.055 0.253 0.055 0.178 0 0.353-0.075 0.475-0.215l5.509-6.225 8.295 8.178c0.12 0.118 0.28 0.183 0.445 0.183 0.058 0 0.115-0.010 0.173-0.025 0.218-0.060 0.388-0.235 0.443-0.455l7.683-30.731c0.060-0.245-0.027-0.503-0.228-0.655zM10.457 20.616l12.492-10.101-8.513 11.787-4.659 5.259 0.68-6.945z"></path>
      </symbol>
      <symbol id="icon-mail1" viewBox="0 0 40 32">
         <path d="M38 1.375h-36c-0.298 0-0.585 0.119-0.796 0.329s-0.33 0.497-0.33 0.796v25.5c0 0.696 0.277 1.364 0.769 1.856s1.16 0.769 1.856 0.769h33c0.696 0 1.364-0.277 1.856-0.769s0.769-1.16 0.769-1.856v-25.5c0-0.298-0.119-0.585-0.33-0.796s-0.497-0.329-0.795-0.329zM35.113 3.625l-15.113 13.856-15.113-13.856h30.225zM36.5 28.375h-33c-0.099 0-0.195-0.040-0.265-0.11s-0.11-0.166-0.11-0.265v-22.95l16.106 14.775c0.21 0.191 0.485 0.297 0.769 0.297s0.558-0.106 0.769-0.297l16.106-14.775v22.95c0 0.099-0.040 0.195-0.11 0.265s-0.166 0.11-0.265 0.11z"></path>
      </symbol>
      <symbol id="icon-phone1" viewBox="0 0 32 32">
         <path d="M22.737 31.684c-12.363 0-22.421-10.058-22.421-22.421 0.002-2.075 0.76-4.079 2.131-5.636s3.263-2.562 5.321-2.827c0.474-0.055 0.952 0.044 1.365 0.283s0.737 0.605 0.924 1.044l3.174 7.405c0.144 0.335 0.203 0.7 0.173 1.064s-0.149 0.714-0.347 1.020l-2.637 4.011c-0.026 0.045-0.041 0.096-0.044 0.148s0.007 0.104 0.028 0.152c1.213 2.487 3.226 4.494 5.716 5.7 0.048 0.022 0.102 0.030 0.154 0.025s0.103-0.025 0.146-0.056l3.963-2.637c0.304-0.204 0.654-0.328 1.018-0.361s0.731 0.026 1.066 0.172l7.405 3.174c0.438 0.187 0.805 0.512 1.044 0.924s0.338 0.892 0.283 1.365c-0.265 2.058-1.27 3.95-2.827 5.321s-3.561 2.129-5.636 2.131zM8.037 2.679h-0.032c-1.599 0.21-3.068 0.993-4.133 2.204s-1.656 2.767-1.661 4.38c0.004 5.443 2.168 10.661 6.017 14.51s9.067 6.012 14.51 6.017c1.613-0.005 3.169-0.596 4.38-1.661s1.994-2.534 2.204-4.134c0.005-0.066-0.010-0.132-0.044-0.188s-0.085-0.101-0.146-0.128l-7.405-3.174c-0.049-0.019-0.102-0.026-0.154-0.020s-0.102 0.023-0.146 0.052l-3.947 2.637c-0.32 0.21-0.688 0.335-1.069 0.362s-0.764-0.043-1.11-0.204c-2.872-1.398-5.195-3.716-6.6-6.584-0.164-0.342-0.237-0.721-0.212-1.1s0.147-0.745 0.354-1.063l2.621-4.011c0.031-0.043 0.051-0.093 0.056-0.146s-0.003-0.106-0.025-0.154l-3.174-7.405c-0.024-0.055-0.064-0.103-0.114-0.136s-0.109-0.052-0.17-0.053z"></path>
      </symbol>
      <symbol id="icon-image" viewBox="0 0 32 32">
         <path d="M29.996 4c0.001 0.001 0.003 0.002 0.004 0.004v23.993c-0.001 0.001-0.002 0.003-0.004 0.004h-27.993c-0.001-0.001-0.003-0.002-0.004-0.004v-23.993c0.001-0.001 0.002-0.003 0.004-0.004h27.993zM30 2h-28c-1.1 0-2 0.9-2 2v24c0 1.1 0.9 2 2 2h28c1.1 0 2-0.9 2-2v-24c0-1.1-0.9-2-2-2v0z"></path>
         <path d="M26 9c0 1.657-1.343 3-3 3s-3-1.343-3-3 1.343-3 3-3 3 1.343 3 3z"></path>
         <path d="M28 26h-24v-4l7-12 8 10h2l7-6z"></path>
      </symbol>
      <symbol id="icon-cog" viewBox="0 0 32 32">
         <path d="M29.181 19.070c-1.679-2.908-0.669-6.634 2.255-8.328l-3.145-5.447c-0.898 0.527-1.943 0.829-3.058 0.829-3.361 0-6.085-2.742-6.085-6.125h-6.289c0.008 1.044-0.252 2.103-0.811 3.070-1.679 2.908-5.411 3.897-8.339 2.211l-3.144 5.447c0.905 0.515 1.689 1.268 2.246 2.234 1.676 2.903 0.672 6.623-2.241 8.319l3.145 5.447c0.895-0.522 1.935-0.82 3.044-0.82 3.35 0 6.067 2.725 6.084 6.092h6.289c-0.003-1.034 0.259-2.080 0.811-3.038 1.676-2.903 5.399-3.894 8.325-2.219l3.145-5.447c-0.899-0.515-1.678-1.266-2.232-2.226zM16 22.479c-3.578 0-6.479-2.901-6.479-6.479s2.901-6.479 6.479-6.479c3.578 0 6.479 2.901 6.479 6.479s-2.901 6.479-6.479 6.479z"></path>
      </symbol>
      <symbol id="icon-stats-dots" viewBox="0 0 32 32">
         <path d="M4 28h28v4h-32v-32h4zM9 26c-1.657 0-3-1.343-3-3s1.343-3 3-3c0.088 0 0.176 0.005 0.262 0.012l3.225-5.375c-0.307-0.471-0.487-1.033-0.487-1.638 0-1.657 1.343-3 3-3s3 1.343 3 3c0 0.604-0.179 1.167-0.487 1.638l3.225 5.375c0.086-0.007 0.174-0.012 0.262-0.012 0.067 0 0.133 0.003 0.198 0.007l5.324-9.316c-0.329-0.482-0.522-1.064-0.522-1.691 0-1.657 1.343-3 3-3s3 1.343 3 3c0 1.657-1.343 3-3 3-0.067 0-0.133-0.003-0.198-0.007l-5.324 9.316c0.329 0.481 0.522 1.064 0.522 1.691 0 1.657-1.343 3-3 3s-3-1.343-3-3c0-0.604 0.179-1.167 0.487-1.638l-3.225-5.375c-0.086 0.007-0.174 0.012-0.262 0.012s-0.176-0.005-0.262-0.012l-3.225 5.375c0.307 0.471 0.487 1.033 0.487 1.637 0 1.657-1.343 3-3 3z"></path>
      </symbol>
      <symbol id="icon-briefcase" viewBox="0 0 32 32">
         <path d="M30 8h-8v-2c0-1.1-0.9-2-2-2h-8c-1.1 0-2 0.9-2 2v2h-8c-1.1 0-2 0.9-2 2v18c0 1.1 0.9 2 2 2h28c1.1 0 2-0.9 2-2v-18c0-1.1-0.9-2-2-2zM12 6.004c0.001-0.001 0.002-0.003 0.004-0.004h7.993c0.001 0.001 0.003 0.002 0.004 0.004v1.996h-8v-1.996zM30 16h-4v3c0 0.55-0.45 1-1 1h-2c-0.55 0-1-0.45-1-1v-3h-12v3c0 0.55-0.45 1-1 1h-2c-0.55 0-1-0.45-1-1v-3h-4v-2h28v2z"></path>
      </symbol>
      <symbol id="icon-power" viewBox="0 0 32 32">
         <path d="M12 0l-12 16h12l-8 16 28-20h-16l12-12z"></path>
      </symbol>
      <symbol id="icon-heart" viewBox="0 0 32 32">
         <path d="M23.6 2c-3.363 0-6.258 2.736-7.599 5.594-1.342-2.858-4.237-5.594-7.601-5.594-4.637 0-8.4 3.764-8.4 8.401 0 9.433 9.516 11.906 16.001 21.232 6.13-9.268 15.999-12.1 15.999-21.232 0-4.637-3.763-8.401-8.4-8.401z"></path>
      </symbol>
      <symbol id="icon-google-plus" viewBox="0 0 32 32">
         <path d="M10.181 14.294v3.494h5.775c-0.231 1.5-1.744 4.394-5.775 4.394-3.475 0-6.313-2.881-6.313-6.431s2.838-6.431 6.313-6.431c1.981 0 3.3 0.844 4.056 1.569l2.762-2.662c-1.775-1.656-4.075-2.662-6.819-2.662-5.631 0.006-10.181 4.556-10.181 10.188s4.55 10.181 10.181 10.181c5.875 0 9.775-4.131 9.775-9.95 0-0.669-0.075-1.181-0.163-1.688h-9.613z"></path>
         <path d="M32 14h-3v-3h-3v3h-3v3h3v3h3v-3h3z"></path>
      </symbol>
   </defs>
</svg>
